<?xml version="1.0" encoding="utf-8"?>
<!-- Generator: Adobe Illustrator 22.0.1, SVG Export Plug-In . SVG Version: 6.00 Build 0)  -->
<svg version="1.1" id="Calque_1" xmlns="http://www.w3.org/2000/svg" xmlns:xlink="http://www.w3.org/1999/xlink" x="0px" y="0px"
	 viewBox="0 0 30 38" style="enable-background:new 0 0 30 38;" xml:space="preserve">
<style type="text/css">
	.st0{fill:#3F3F41;}
	.st1{fill-rule:evenodd;clip-rule:evenodd;fill:#3F3F41;}
	.st2{fill:#99AAB1;}
	.st3{fill-rule:evenodd;clip-rule:evenodd;fill:#99AAB1;}
</style>
<path class="st0" d="M29.4,16.9l-13-11.9c-0.7-0.7-1.9-0.7-2.6,0l-13,11.9c-0.8,0.7-0.8,1.9-0.1,2.7l0,0c0.4,0.4,0.9,0.6,1.4,0.6
	c0.5,0,0.9-0.2,1.3-0.5L15,9.1l11.7,10.7c0.8,0.7,2,0.7,2.7-0.1C30.2,18.9,30.1,17.7,29.4,16.9L29.4,16.9z M4.7,20.3v12.1
	c0,0.5,0.3,0.7,0.5,0.9c0.3,0.1,0.5,0.2,0.8,0.2c6.6,0,11.3,0,17.9,0c0.3,0,0.6-0.1,0.8-0.2c0.2-0.1,0.5-0.4,0.5-0.9V20.3L15,10.9
	L4.7,20.3z M10.7,19.3h8.5v5.9h-8.5V19.3z M2.7,6.1l7.9,0.2l-7.4,7.2L2.7,6.1z"/>
<path class="st1" d="M-0.9-42.7h12c0.5,0,0.9,0.2,1.3,0.5l0,0l0,0c0.3,0.3,0.5,0.8,0.5,1.3v25.8c0,0.2,0,0.3-0.1,0.5h13.6
	c0.1,0,0.2,0,0.3,0.1c0.1,0.1,0.1,0.2,0.1,0.3v0.6c0,0.1,0,0.2-0.1,0.3c-0.1,0.1-0.2,0.1-0.3,0.1H10.8c0,0,0,0,0,0H-0.9
	c-0.5,0-0.9-0.2-1.3-0.5v0l0,0c-0.3-0.3-0.5-0.8-0.5-1.3v-25.8c0-0.5,0.2-1,0.5-1.3l0,0v0C-1.9-42.5-1.4-42.7-0.9-42.7L-0.9-42.7z
	 M3.3-34.6H1.1c-0.2,0-0.3,0.1-0.4,0.2l0,0c-0.1,0.1-0.2,0.3-0.2,0.5v2c0,0.2,0.1,0.3,0.2,0.5l0,0c0.1,0.1,0.3,0.2,0.4,0.2h2.3
	c0.2,0,0.3-0.1,0.5-0.2l0,0C3.9-31.6,4-31.7,4-31.9v-2c0-0.2-0.1-0.3-0.2-0.5l0,0C3.7-34.5,3.5-34.6,3.3-34.6L3.3-34.6z M3.3-39.5
	H1.1c-0.2,0-0.3,0.1-0.4,0.2l0,0c-0.1,0.1-0.2,0.3-0.2,0.5v2c0,0.2,0.1,0.3,0.2,0.5l0,0c0.1,0.1,0.3,0.2,0.4,0.2h2.3
	c0.2,0,0.3-0.1,0.5-0.2l0,0C3.9-36.5,4-36.7,4-36.9v-2c0-0.2-0.1-0.3-0.2-0.5l0,0C3.7-39.4,3.5-39.5,3.3-39.5L3.3-39.5z M9.1-39.5
	H6.8c-0.2,0-0.3,0.1-0.4,0.2l0,0c-0.1,0.1-0.2,0.3-0.2,0.5v2c0,0.2,0.1,0.3,0.2,0.5l0,0c0.1,0.1,0.3,0.2,0.4,0.2h2.3
	c0.2,0,0.3-0.1,0.4-0.2l0,0c0.1-0.1,0.2-0.3,0.2-0.5v-2c0-0.2-0.1-0.3-0.2-0.5l0,0C9.4-39.4,9.3-39.5,9.1-39.5L9.1-39.5z M3.3-19.7
	H1.1c-0.2,0-0.3,0.1-0.4,0.2l0,0c-0.1,0.1-0.2,0.3-0.2,0.5v2c0,0.2,0.1,0.3,0.2,0.5l0,0c0.1,0.1,0.3,0.2,0.4,0.2h2.3
	c0.2,0,0.3-0.1,0.5-0.2l0,0C3.9-16.7,4-16.9,4-17.1v-2c0-0.2-0.1-0.3-0.2-0.5l0,0C3.7-19.6,3.5-19.7,3.3-19.7L3.3-19.7z M9.1-19.7
	H6.8c-0.2,0-0.3,0.1-0.4,0.2l0,0c-0.1,0.1-0.2,0.3-0.2,0.5v2c0,0.2,0.1,0.3,0.2,0.5l0,0c0.1,0.1,0.3,0.2,0.4,0.2h2.3
	c0.2,0,0.3-0.1,0.4-0.2l0,0c0.1-0.1,0.2-0.3,0.2-0.5v-2c0-0.2-0.1-0.3-0.2-0.5l0,0C9.4-19.6,9.3-19.7,9.1-19.7L9.1-19.7z M3.3-24.7
	H1.1c-0.2,0-0.3,0.1-0.4,0.2l0,0c-0.1,0.1-0.2,0.3-0.2,0.5v2c0,0.2,0.1,0.3,0.2,0.5l0,0c0.1,0.1,0.3,0.2,0.4,0.2h2.3
	c0.2,0,0.3-0.1,0.5-0.2l0,0C3.9-21.7,4-21.8,4-22v-2c0-0.2-0.1-0.3-0.2-0.5l0,0C3.7-24.6,3.5-24.7,3.3-24.7L3.3-24.7z M9.1-24.7H6.8
	c-0.2,0-0.3,0.1-0.4,0.2l0,0c-0.1,0.1-0.2,0.3-0.2,0.5v2c0,0.2,0.1,0.3,0.2,0.5l0,0c0.1,0.1,0.3,0.2,0.4,0.2h2.3
	c0.2,0,0.3-0.1,0.4-0.2l0,0c0.1-0.1,0.2-0.3,0.2-0.5v-2c0-0.2-0.1-0.3-0.2-0.5l0,0C9.4-24.6,9.3-24.7,9.1-24.7L9.1-24.7z M3.3-29.6
	H1.1c-0.2,0-0.3,0.1-0.4,0.2l0,0c-0.1,0.1-0.2,0.3-0.2,0.5v2c0,0.2,0.1,0.3,0.2,0.5l0,0c0.1,0.1,0.3,0.2,0.4,0.2h2.3
	c0.2,0,0.3-0.1,0.5-0.2l0,0C3.9-26.6,4-26.8,4-27v-2c0-0.2-0.1-0.3-0.2-0.5l0,0C3.7-29.5,3.5-29.6,3.3-29.6L3.3-29.6z M9.1-29.6H6.8
	c-0.2,0-0.3,0.1-0.4,0.2l0,0c-0.1,0.1-0.2,0.3-0.2,0.5v2c0,0.2,0.1,0.3,0.2,0.5l0,0c0.1,0.1,0.3,0.2,0.4,0.2h2.3
	c0.2,0,0.3-0.1,0.4-0.2l0,0c0.1-0.1,0.2-0.3,0.2-0.5v-2c0-0.2-0.1-0.3-0.2-0.5l0,0C9.4-29.5,9.3-29.6,9.1-29.6L9.1-29.6z M9.1-34.6
	H6.8c-0.2,0-0.3,0.1-0.4,0.2l0,0c-0.1,0.1-0.2,0.3-0.2,0.5v2c0,0.2,0.1,0.3,0.2,0.5l0,0c0.1,0.1,0.3,0.2,0.4,0.2h2.3
	c0.2,0,0.3-0.1,0.4-0.2l0,0c0.1-0.1,0.2-0.3,0.2-0.5v-2c0-0.2-0.1-0.3-0.2-0.5l0,0C9.4-34.5,9.3-34.6,9.1-34.6L9.1-34.6z"/>
<path class="st1" d="M37.7-14.7l-0.8-4.2l5.4-2.3v6.4v0.3H42h-4h-0.3L37.7-14.7z M36.8-19.7l-0.9-4.6l6.4-2.8v5L36.8-19.7z
	 M35.8-25.1L35-29.6l7.3-3.2v4.8L35.8-25.1z M34.8-30.4l-0.9-5.2l0-0.2l0.2-0.1l7.8-4.5l0.5-0.3v0.6v6.5L34.8-30.4z M55-33.4
	l7.9,1.9l-0.3,2l-8.4,4.2L55-33.4z M62.5-28.5l-0.5,3.4l-8.2,3.9l0.3-3.2L62.5-28.5z M61.8-24.2l-0.6,3.6L53.3-17l0.3-3.2L61.8-24.2
	z M61.1-19.6l-0.8,5.2h-5.2H53l0.2-1.7L61.1-19.6z M43.1-43.5l0,11l11.3-1.2l0.5-4.9L43.1-43.5z M43-31.7l0,2.9l11-1l0.3-3L43-31.7z
	 M43-28v3l10.6-0.8l0.3-3.2L43-28z M43-24.2l0,9.8h9.5L53.5-25L43-24.2z"/>
<path class="st2" d="M-18.9-75.3l-13-11.9c-0.7-0.7-1.9-0.7-2.6,0l-13,11.9c-0.8,0.7-0.8,1.9-0.1,2.7l0,0c0.4,0.4,0.9,0.6,1.4,0.6
	c0.5,0,0.9-0.2,1.3-0.5l11.7-10.7l11.7,10.7c0.8,0.7,2,0.7,2.7-0.1C-18.1-73.4-18.1-74.6-18.9-75.3L-18.9-75.3z M-43.6-72v12.1
	c0,0.5,0.3,0.7,0.5,0.9c0.3,0.1,0.5,0.2,0.8,0.2c6.6,0,11.3,0,17.9,0c0.3,0,0.6-0.1,0.8-0.2c0.2-0.1,0.5-0.4,0.5-0.9V-72l-10.3-9.4
	L-43.6-72z M-37.5-72.9h8.5v5.9h-8.5V-72.9z M-45.6-86.1l7.9,0.2l-7.4,7.2L-45.6-86.1z"/>
<path class="st3" d="M-0.9-86.7h12c0.5,0,0.9,0.2,1.3,0.5l0,0l0,0c0.3,0.3,0.5,0.8,0.5,1.3v25.8c0,0.2,0,0.3-0.1,0.5h13.6
	c0.1,0,0.2,0,0.3,0.1c0.1,0.1,0.1,0.2,0.1,0.3v0.6c0,0.1,0,0.2-0.1,0.3c-0.1,0.1-0.2,0.1-0.3,0.1H10.8c0,0,0,0,0,0H-0.9
	c-0.5,0-0.9-0.2-1.3-0.5v0l0,0c-0.3-0.3-0.5-0.8-0.5-1.3v-25.8c0-0.5,0.2-1,0.5-1.3l0,0v0C-1.9-86.5-1.4-86.7-0.9-86.7L-0.9-86.7z
	 M3.3-78.6H1.1c-0.2,0-0.3,0.1-0.4,0.2l0,0c-0.1,0.1-0.2,0.3-0.2,0.5v2c0,0.2,0.1,0.3,0.2,0.5l0,0c0.1,0.1,0.3,0.2,0.4,0.2h2.3
	c0.2,0,0.3-0.1,0.5-0.2l0,0C3.9-75.6,4-75.7,4-75.9v-2c0-0.2-0.1-0.3-0.2-0.5l0,0C3.7-78.5,3.5-78.6,3.3-78.6L3.3-78.6z M3.3-83.5
	H1.1c-0.2,0-0.3,0.1-0.4,0.2l0,0c-0.1,0.1-0.2,0.3-0.2,0.5v2c0,0.2,0.1,0.3,0.2,0.5l0,0c0.1,0.1,0.3,0.2,0.4,0.2h2.3
	c0.2,0,0.3-0.1,0.5-0.2l0,0C3.9-80.5,4-80.7,4-80.9v-2c0-0.2-0.1-0.3-0.2-0.5l0,0C3.7-83.4,3.5-83.5,3.3-83.5L3.3-83.5z M9.1-83.5
	H6.8c-0.2,0-0.3,0.1-0.4,0.2l0,0c-0.1,0.1-0.2,0.3-0.2,0.5v2c0,0.2,0.1,0.3,0.2,0.5l0,0c0.1,0.1,0.3,0.2,0.4,0.2h2.3
	c0.2,0,0.3-0.1,0.4-0.2l0,0c0.1-0.1,0.2-0.3,0.2-0.5v-2c0-0.2-0.1-0.3-0.2-0.5l0,0C9.4-83.4,9.3-83.5,9.1-83.5L9.1-83.5z M3.3-63.7
	H1.1c-0.2,0-0.3,0.1-0.4,0.2l0,0c-0.1,0.1-0.2,0.3-0.2,0.5v2c0,0.2,0.1,0.3,0.2,0.5l0,0c0.1,0.1,0.3,0.2,0.4,0.2h2.3
	c0.2,0,0.3-0.1,0.5-0.2l0,0C3.9-60.7,4-60.9,4-61.1v-2c0-0.2-0.1-0.3-0.2-0.5l0,0C3.7-63.6,3.5-63.7,3.3-63.7L3.3-63.7z M9.1-63.7
	H6.8c-0.2,0-0.3,0.1-0.4,0.2l0,0c-0.1,0.1-0.2,0.3-0.2,0.5v2c0,0.2,0.1,0.3,0.2,0.5l0,0c0.1,0.1,0.3,0.2,0.4,0.2h2.3
	c0.2,0,0.3-0.1,0.4-0.2l0,0c0.1-0.1,0.2-0.3,0.2-0.5v-2c0-0.2-0.1-0.3-0.2-0.5l0,0C9.4-63.6,9.3-63.7,9.1-63.7L9.1-63.7z M3.3-68.7
	H1.1c-0.2,0-0.3,0.1-0.4,0.2l0,0c-0.1,0.1-0.2,0.3-0.2,0.5v2c0,0.2,0.1,0.3,0.2,0.5l0,0c0.1,0.1,0.3,0.2,0.4,0.2h2.3
	c0.2,0,0.3-0.1,0.5-0.2l0,0C3.9-65.7,4-65.8,4-66v-2c0-0.2-0.1-0.3-0.2-0.5l0,0C3.7-68.6,3.5-68.7,3.3-68.7L3.3-68.7z M9.1-68.7H6.8
	c-0.2,0-0.3,0.1-0.4,0.2l0,0c-0.1,0.1-0.2,0.3-0.2,0.5v2c0,0.2,0.1,0.3,0.2,0.5l0,0c0.1,0.1,0.3,0.2,0.4,0.2h2.3
	c0.2,0,0.3-0.1,0.4-0.2l0,0c0.1-0.1,0.2-0.3,0.2-0.5v-2c0-0.2-0.1-0.3-0.2-0.5l0,0C9.4-68.6,9.3-68.7,9.1-68.7L9.1-68.7z M3.3-73.6
	H1.1c-0.2,0-0.3,0.1-0.4,0.2l0,0c-0.1,0.1-0.2,0.3-0.2,0.5v2c0,0.2,0.1,0.3,0.2,0.5l0,0c0.1,0.1,0.3,0.2,0.4,0.2h2.3
	c0.2,0,0.3-0.1,0.5-0.2l0,0C3.9-70.6,4-70.8,4-71v-2c0-0.2-0.1-0.3-0.2-0.5l0,0C3.7-73.5,3.5-73.6,3.3-73.6L3.3-73.6z M9.1-73.6H6.8
	c-0.2,0-0.3,0.1-0.4,0.2l0,0c-0.1,0.1-0.2,0.3-0.2,0.5v2c0,0.2,0.1,0.3,0.2,0.5l0,0c0.1,0.1,0.3,0.2,0.4,0.2h2.3
	c0.2,0,0.3-0.1,0.4-0.2l0,0c0.1-0.1,0.2-0.3,0.2-0.5v-2c0-0.2-0.1-0.3-0.2-0.5l0,0C9.4-73.5,9.3-73.6,9.1-73.6L9.1-73.6z M9.1-78.6
	H6.8c-0.2,0-0.3,0.1-0.4,0.2l0,0c-0.1,0.1-0.2,0.3-0.2,0.5v2c0,0.2,0.1,0.3,0.2,0.5l0,0c0.1,0.1,0.3,0.2,0.4,0.2h2.3
	c0.2,0,0.3-0.1,0.4-0.2l0,0c0.1-0.1,0.2-0.3,0.2-0.5v-2c0-0.2-0.1-0.3-0.2-0.5l0,0C9.4-78.5,9.3-78.6,9.1-78.6L9.1-78.6z"/>
<path class="st3" d="M37.7-58.7l-0.8-4.2l5.4-2.3v6.4v0.3H42h-4h-0.3L37.7-58.7z M36.8-63.7l-0.9-4.6l6.4-2.8v5L36.8-63.7z
	 M35.8-69.1L35-73.6l7.3-3.2v4.8L35.8-69.1z M34.8-74.4l-0.9-5.2l0-0.2l0.2-0.1l7.8-4.5l0.5-0.3v0.6v6.5L34.8-74.4z M55-77.4
	l7.9,1.9l-0.3,2l-8.4,4.2L55-77.4z M62.5-72.5l-0.5,3.4l-8.2,3.9l0.3-3.2L62.5-72.5z M61.8-68.2l-0.6,3.6L53.3-61l0.3-3.2L61.8-68.2
	z M61.1-63.6l-0.8,5.2h-5.2H53l0.2-1.7L61.1-63.6z M43.1-87.5l0,11l11.3-1.2l0.5-4.9L43.1-87.5z M43-75.7l0,2.9l11-1l0.3-3L43-75.7z
	 M43-72v3l10.6-0.8l0.3-3.2L43-72z M43-68.2l0,9.8h9.5L53.5-69L43-68.2z"/>
</svg>
